<?xml version="1.0" encoding="iso-8859-1"?>
<!-- Generator: Adobe Illustrator 19.0.0, SVG Export Plug-In . SVG Version: 6.00 Build 0)  -->
<svg version="1.1" id="Layer_1" xmlns="http://www.w3.org/2000/svg" xmlns:xlink="http://www.w3.org/1999/xlink" x="0px" y="0px"
	 viewBox="0 0 508 508" style="enable-background:new 0 0 508 508;" xml:space="preserve">
<g>
	<g>
		<path d="M378.764,0H129.18C57.948,0,0,57.964,0,129.212v249.576C0,450.036,57.948,508,129.18,508h249.584
			C450.028,508,508,450.036,508,378.788V129.212C508,57.964,450.024,0,378.764,0z M500,378.788C500,445.624,445.612,500,378.764,500
			H129.18C62.36,500,8,445.624,8,378.788V129.212C8,62.376,62.36,8,129.18,8h249.584C445.612,8,500,62.376,500,129.212V378.788z"/>
	</g>
</g>
<g>
	<g>
		<path d="M480.192,253.968c-2.212,0-4,1.792-4,4v112.02c0,57.564-48.632,106.2-106.2,106.2H138.008
			c-57.568,0-106.2-48.632-106.2-106.2V138c0-57.56,48.632-106.192,106.2-106.192H369.08c2.212,0,4-1.792,4-4s-1.788-4-4-4H138.008
			c-61.904,0-114.2,52.292-114.2,114.192v231.992c0,61.904,52.296,114.2,114.2,114.2h231.984c61.904,0,114.2-52.296,114.2-114.204
			v-112.02C484.192,255.76,482.404,253.968,480.192,253.968z"/>
	</g>
</g>
<g>
	<g>
		<path d="M449.808,58.188c-20.56-20.564-55.396-34.38-86.684-34.38c-2.212,0-4,1.792-4,4s1.788,4,4,4
			c28.848,0,62.168,13.176,81.028,32.036c0.78,0.78,1.804,1.172,2.828,1.172s2.048-0.392,2.828-1.172
			C451.372,62.28,451.372,59.752,449.808,58.188z"/>
	</g>
</g>
<g>
	<g>
		<path d="M480.192,166.668c-2.212,0-4,1.792-4,4v59.524c0,2.208,1.788,4,4,4c2.212,0,4-1.792,4-4v-59.524
			C484.192,168.46,482.404,166.668,480.192,166.668z"/>
	</g>
</g>
<g>
	<g>
		<path d="M348.98,126.04c-22.536-20.936-53.744-32.464-87.872-32.464c-52.16,0-84.228,20.68-101.944,38.024
			c-21.848,21.388-34.376,49.784-34.376,77.904c0,35.176,15.108,62.164,40.436,72.196c3.244,1.272,6.524,1.216,9.224-0.152
			c2.616-1.332,4.524-3.832,5.36-7c0.444-1.612,1.192-4.476,1.94-7.344c0.712-2.72,1.424-5.44,1.868-7.064
			c1.576-5.76,0.82-8.692-3.508-13.656c-7.568-8.624-11.248-19.256-11.248-32.504c0-53.152,44.916-81.828,87.172-81.828
			c45.064,0,73.056,24.776,73.056,64.66c0,52.036-23.516,91.28-54.7,91.28c-8.76,0-16.556-3.528-21.392-9.688
			c-4.336-5.52-5.74-12.58-3.964-19.868c1.984-8.064,4.664-16.452,7.256-24.564c1.012-3.168,2.012-6.3,2.96-9.372
			c3.256-10.568,6.272-21.592,6.272-30.596c0-18.768-11.38-30.892-28.984-30.892c-22.28,0-39.732,22.124-39.732,50.368
			c0,17.688,6.108,29.704,6.364,30.208c1.012,1.964,3.428,2.732,5.392,1.72c1.964-1.016,2.732-3.428,1.72-5.392
			c-0.056-0.108-5.472-10.776-5.472-26.536c0-23.76,13.94-42.368,31.732-42.368c19.472,0,20.984,17.524,20.984,22.892
			c0,7.948-2.84,18.272-5.92,28.244c-0.936,3.044-1.928,6.152-2.932,9.292c-2.636,8.24-5.356,16.764-7.408,25.096
			c-2.376,9.732-0.444,19.22,5.444,26.716c6.36,8.1,16.448,12.748,27.68,12.748c35.748,0,62.7-42.68,62.7-99.28
			c0-44.14-31.816-72.66-81.056-72.66c-46.136,0-95.172,31.484-95.172,89.828c0,15.272,4.328,27.628,13.228,37.772
			c2.688,3.08,2.62,3.324,1.812,6.276c-0.452,1.648-1.168,4.404-1.888,7.156c-0.736,2.824-1.476,5.644-1.924,7.28
			c-0.18,0.692-0.548,1.588-1.26,1.952c-0.636,0.32-1.592,0.26-2.668-0.16c-22.144-8.772-35.368-32.98-35.368-64.752
			c0-74.444,75.04-107.928,128.32-107.928c70.888,0,113.252,50.164,113.252,98.664c0,69.94-39.444,118.784-95.912,118.784
			c-19.272,0-36.352-10.28-41.736-20.216c-0.776-1.448-2.372-2.264-3.996-2.068c-1.636,0.2-2.976,1.376-3.392,2.964
			c-0.104,0.412-10.756,41.308-12.996,49.164c-6.224,21.82-22.328,44.124-30.56,54.56c-2.112-15.132-4.32-41.124,1.024-63
			c0.524-2.148-0.792-4.312-2.936-4.836c-2.144-0.516-4.312,0.788-4.836,2.936c-6.004,24.596-3.052,53.68-0.76,68.828l0.108,0.732
			c0.336,2.524,2.092,4.52,4.572,5.212c0.6,0.164,1.212,0.248,1.812,0.248c1.972,0,3.864-0.876,5.136-2.472l0.396-0.492
			c7.784-9.616,26.652-34.668,33.744-59.536c1.664-5.844,7.696-28.86,10.944-41.304c9.768,10.212,26.86,17.268,43.476,17.268
			c60.212,0,103.912-53.32,103.912-126.784C382.364,172.792,370.196,145.748,348.98,126.04z"/>
	</g>
</g>
<g>
</g>
<g>
</g>
<g>
</g>
<g>
</g>
<g>
</g>
<g>
</g>
<g>
</g>
<g>
</g>
<g>
</g>
<g>
</g>
<g>
</g>
<g>
</g>
<g>
</g>
<g>
</g>
<g>
</g>
</svg>
